<svg width="37" height="36" viewBox="0 0 37 36" fill="none" xmlns="http://www.w3.org/2000/svg">
<path d="M33.7083 8.32472C28.3231 -0.000275195 17.3284 -2.47527 8.8019 2.69973C0.49978 7.87473 -2.1928 19.1247 3.19236 27.4497L3.64112 28.1247L1.84607 34.8747L8.57752 33.0747L9.25067 33.5247C12.1676 35.0997 15.309 35.9997 18.4503 35.9997C21.816 35.9997 25.1818 35.0997 28.0987 33.2997C36.4009 27.8997 38.869 16.8747 33.7083 8.32472V8.32472ZM28.9963 25.6497C28.0987 26.9997 26.9768 27.8997 25.4061 28.1247C24.5086 28.1247 23.3867 28.5747 18.8991 26.7747C15.0846 24.9747 11.9432 22.0497 9.69943 18.6747C8.35314 17.0997 7.67999 15.0747 7.45561 13.0497C7.45561 11.2497 8.12876 9.67473 9.25067 8.54973C9.69943 8.09973 10.1482 7.87473 10.597 7.87473H11.7189C12.1676 7.87473 12.6164 7.87473 12.8408 8.77473C13.2895 9.89973 14.4114 12.5997 14.4114 12.8247C14.6358 13.0497 14.6358 13.4997 14.4114 13.7247C14.6358 14.1747 14.4114 14.6247 14.1871 14.8497C13.9627 15.0747 13.7383 15.5247 13.5139 15.7497C13.0652 15.9747 12.8408 16.4247 13.0652 16.8747C13.9627 18.2247 15.0846 19.5747 16.2065 20.6997C17.5528 21.8247 18.8991 22.7247 20.4697 23.3997C20.9185 23.6247 21.3673 23.6247 21.5917 23.1747C21.816 22.7247 22.9379 21.5997 23.3867 21.1497C23.8355 20.6997 24.0599 20.6997 24.5086 20.9247L28.0987 22.7247C28.5475 22.9497 28.9963 23.1747 29.2206 23.3997C29.445 24.0747 29.445 24.9747 28.9963 25.6497V25.6497Z" fill="white"/>
</svg>
