<svg width="417" height="417" viewBox="0 0 417 417" fill="none" xmlns="http://www.w3.org/2000/svg">
<path d="M10.1603 0H0V10.1603H10.1603V0Z" fill="black"/>
<path d="M20.3206 0H10.1603V10.1603H20.3206V0Z" fill="black"/>
<path d="M30.4808 0H20.3206V10.1603H30.4808V0Z" fill="black"/>
<path d="M40.6411 0H30.4808V10.1603H40.6411V0Z" fill="black"/>
<path d="M50.8014 0H40.6411V10.1603H50.8014V0Z" fill="black"/>
<path d="M60.9617 0H50.8014V10.1603H60.9617V0Z" fill="black"/>
<path d="M71.122 0H60.9617V10.1603H71.122V0Z" fill="black"/>
<path d="M91.4425 0H81.2822V10.1603H91.4425V0Z" fill="black"/>
<path d="M111.763 0H101.603V10.1603H111.763V0Z" fill="black"/>
<path d="M142.244 0H132.084V10.1603H142.244V0Z" fill="black"/>
<path d="M172.725 0H162.564V10.1603H172.725V0Z" fill="black"/>
<path d="M203.206 0H193.045V10.1603H203.206V0Z" fill="black"/>
<path d="M213.366 0H203.206V10.1603H213.366V0Z" fill="black"/>
<path d="M223.526 0H213.366V10.1603H223.526V0Z" fill="black"/>
<path d="M254.007 0H243.847V10.1603H254.007V0Z" fill="black"/>
<path d="M274.328 0H264.167V10.1603H274.328V0Z" fill="black"/>
<path d="M314.969 0H304.808V10.1603H314.969V0Z" fill="black"/>
<path d="M335.289 0H325.129V10.1603H335.289V0Z" fill="black"/>
<path d="M355.61 0H345.449V10.1603H355.61V0Z" fill="black"/>
<path d="M365.77 0H355.61V10.1603H365.77V0Z" fill="black"/>
<path d="M375.93 0H365.77V10.1603H375.93V0Z" fill="black"/>
<path d="M386.091 0H375.93V10.1603H386.091V0Z" fill="black"/>
<path d="M396.251 0H386.091V10.1603H396.251V0Z" fill="black"/>
<path d="M406.411 0H396.251V10.1603H406.411V0Z" fill="black"/>
<path d="M416.571 0H406.411V10.1603H416.571V0Z" fill="black"/>
<path d="M10.1603 10.1603H0V20.3206H10.1603V10.1603Z" fill="black"/>
<path d="M71.122 10.1603H60.9617V20.3206H71.122V10.1603Z" fill="black"/>
<path d="M121.923 10.1603H111.763V20.3206H121.923V10.1603Z" fill="black"/>
<path d="M132.084 10.1603H121.923V20.3206H132.084V10.1603Z" fill="black"/>
<path d="M142.244 10.1603H132.084V20.3206H142.244V10.1603Z" fill="black"/>
<path d="M152.404 10.1603H142.244V20.3206H152.404V10.1603Z" fill="black"/>
<path d="M162.564 10.1603H152.404V20.3206H162.564V10.1603Z" fill="black"/>
<path d="M182.885 10.1603H172.725V20.3206H182.885V10.1603Z" fill="black"/>
<path d="M223.526 10.1603H213.366V20.3206H223.526V10.1603Z" fill="black"/>
<path d="M233.686 10.1603H223.526V20.3206H233.686V10.1603Z" fill="black"/>
<path d="M243.847 10.1603H233.686V20.3206H243.847V10.1603Z" fill="black"/>
<path d="M264.167 10.1603H254.007V20.3206H264.167V10.1603Z" fill="black"/>
<path d="M274.328 10.1603H264.167V20.3206H274.328V10.1603Z" fill="black"/>
<path d="M294.648 10.1603H284.488V20.3206H294.648V10.1603Z" fill="black"/>
<path d="M355.61 10.1603H345.449V20.3206H355.61V10.1603Z" fill="black"/>
<path d="M416.571 10.1603H406.411V20.3206H416.571V10.1603Z" fill="black"/>
<path d="M10.1603 20.3206H0V30.4808H10.1603V20.3206Z" fill="black"/>
<path d="M30.4808 20.3206H20.3206V30.4808H30.4808V20.3206Z" fill="black"/>
<path d="M40.6411 20.3206H30.4808V30.4808H40.6411V20.3206Z" fill="black"/>
<path d="M50.8014 20.3206H40.6411V30.4808H50.8014V20.3206Z" fill="black"/>
<path d="M71.122 20.3206H60.9617V30.4808H71.122V20.3206Z" fill="black"/>
<path d="M101.603 20.3206H91.4425V30.4808H101.603V20.3206Z" fill="black"/>
<path d="M111.763 20.3206H101.603V30.4808H111.763V20.3206Z" fill="black"/>
<path d="M121.923 20.3206H111.763V30.4808H121.923V20.3206Z" fill="black"/>
<path d="M132.084 20.3206H121.923V30.4808H132.084V20.3206Z" fill="black"/>
<path d="M152.404 20.3206H142.244V30.4808H152.404V20.3206Z" fill="black"/>
<path d="M172.725 20.3206H162.564V30.4808H172.725V20.3206Z" fill="black"/>
<path d="M182.885 20.3206H172.725V30.4808H182.885V20.3206Z" fill="black"/>
<path d="M193.045 20.3206H182.885V30.4808H193.045V20.3206Z" fill="black"/>
<path d="M203.206 20.3206H193.045V30.4808H203.206V20.3206Z" fill="black"/>
<path d="M223.526 20.3206H213.366V30.4808H223.526V20.3206Z" fill="black"/>
<path d="M233.686 20.3206H223.526V30.4808H233.686V20.3206Z" fill="black"/>
<path d="M254.007 20.3206H243.847V30.4808H254.007V20.3206Z" fill="black"/>
<path d="M274.328 20.3206H264.167V30.4808H274.328V20.3206Z" fill="black"/>
<path d="M355.61 20.3206H345.449V30.4808H355.61V20.3206Z" fill="black"/>
<path d="M375.93 20.3206H365.77V30.4808H375.93V20.3206Z" fill="black"/>
<path d="M386.091 20.3206H375.93V30.4808H386.091V20.3206Z" fill="black"/>
<path d="M396.251 20.3206H386.091V30.4808H396.251V20.3206Z" fill="black"/>
<path d="M416.571 20.3206H406.411V30.4808H416.571V20.3206Z" fill="black"/>
<path d="M10.1603 30.4808H0V40.6411H10.1603V30.4808Z" fill="black"/>
<path d="M30.4808 30.4808H20.3206V40.6411H30.4808V30.4808Z" fill="black"/>
<path d="M40.6411 30.4808H30.4808V40.6411H40.6411V30.4808Z" fill="black"/>
<path d="M50.8014 30.4808H40.6411V40.6411H50.8014V30.4808Z" fill="black"/>
<path d="M71.122 30.4808H60.9617V40.6411H71.122V30.4808Z" fill="black"/>
<path d="M91.4425 30.4808H81.2822V40.6411H91.4425V30.4808Z" fill="black"/>
<path d="M101.603 30.4808H91.4425V40.6411H101.603V30.4808Z" fill="black"/>
<path d="M111.763 30.4808H101.603V40.6411H111.763V30.4808Z" fill="black"/>
<path d="M132.084 30.4808H121.923V40.6411H132.084V30.4808Z" fill="black"/>
<path d="M142.244 30.4808H132.084V40.6411H142.244V30.4808Z" fill="black"/>
<path d="M162.564 30.4808H152.404V40.6411H162.564V30.4808Z" fill="black"/>
<path d="M182.885 30.4808H172.725V40.6411H182.885V30.4808Z" fill="black"/>
<path d="M193.045 30.4808H182.885V40.6411H193.045V30.4808Z" fill="black"/>
<path d="M203.206 30.4808H193.045V40.6411H203.206V30.4808Z" fill="black"/>
<path d="M213.366 30.4808H203.206V40.6411H213.366V30.4808Z" fill="black"/>
<path d="M223.526 30.4808H213.366V40.6411H223.526V30.4808Z" fill="black"/>
<path d="M264.167 30.4808H254.007V40.6411H264.167V30.4808Z" fill="black"/>
<path d="M274.328 30.4808H264.167V40.6411H274.328V30.4808Z" fill="black"/>
<path d="M294.648 30.4808H284.488V40.6411H294.648V30.4808Z" fill="black"/>
<path d="M304.808 30.4808H294.648V40.6411H304.808V30.4808Z" fill="black"/>
<path d="M335.289 30.4808H325.129V40.6411H335.289V30.4808Z" fill="black"/>
<path d="M355.61 30.4808H345.449V40.6411H355.61V30.4808Z" fill="black"/>
<path d="M375.93 30.4808H365.77V40.6411H375.93V30.4808Z" fill="black"/>
<path d="M386.091 30.4808H375.93V40.6411H386.091V30.4808Z" fill="black"/>
<path d="M396.251 30.4808H386.091V40.6411H396.251V30.4808Z" fill="black"/>
<path d="M416.571 30.4808H406.411V40.6411H416.571V30.4808Z" fill="black"/>
<path d="M10.1603 40.6411H0V50.8014H10.1603V40.6411Z" fill="black"/>
<path d="M30.4808 40.6411H20.3206V50.8014H30.4808V40.6411Z" fill="black"/>
<path d="M40.6411 40.6411H30.4808V50.8014H40.6411V40.6411Z" fill="black"/>
<path d="M50.8014 40.6411H40.6411V50.8014H50.8014V40.6411Z" fill="black"/>
<path d="M71.122 40.6411H60.9617V50.8014H71.122V40.6411Z" fill="black"/>
<path d="M101.603 40.6411H91.4425V50.8014H101.603V40.6411Z" fill="black"/>
<path d="M111.763 40.6411H101.603V50.8014H111.763V40.6411Z" fill="black"/>
<path d="M193.045 40.6411H182.885V50.8014H193.045V40.6411Z" fill="black"/>
<path d="M203.206 40.6411H193.045V50.8014H203.206V40.6411Z" fill="black"/>
<path d="M243.847 40.6411H233.686V50.8014H243.847V40.6411Z" fill="black"/>
<path d="M304.808 40.6411H294.648V50.8014H304.808V40.6411Z" fill="black"/>
<path d="M314.969 40.6411L304.808 40.6411V50.8014H314.969V40.6411Z" fill="black"/>
<path d="M325.129 40.6411L314.969 40.6411V50.8014H325.129V40.6411Z" fill="black"/>
<path d="M355.61 40.6411H345.449V50.8014H355.61V40.6411Z" fill="black"/>
<path d="M375.93 40.6411H365.77V50.8014H375.93V40.6411Z" fill="black"/>
<path d="M386.091 40.6411H375.93V50.8014H386.091V40.6411Z" fill="black"/>
<path d="M396.251 40.6411H386.091V50.8014H396.251V40.6411Z" fill="black"/>
<path d="M416.571 40.6411H406.411V50.8014H416.571V40.6411Z" fill="black"/>
<path d="M10.1603 50.8014H0V60.9617H10.1603V50.8014Z" fill="black"/>
<path d="M71.122 50.8014H60.9617V60.9617H71.122V50.8014Z" fill="black"/>
<path d="M91.4425 50.8014H81.2822V60.9617H91.4425V50.8014Z" fill="black"/>
<path d="M101.603 50.8014H91.4425V60.9617H101.603V50.8014Z" fill="black"/>
<path d="M132.084 50.8014H121.923V60.9617H132.084V50.8014Z" fill="black"/>
<path d="M142.244 50.8014H132.084V60.9617H142.244V50.8014Z" fill="black"/>
<path d="M162.564 50.8014H152.404V60.9617H162.564V50.8014Z" fill="black"/>
<path d="M172.725 50.8014H162.564V60.9617H172.725V50.8014Z" fill="black"/>
<path d="M193.045 50.8014H182.885V60.9617H193.045V50.8014Z" fill="black"/>
<path d="M203.206 50.8014H193.045V60.9617H203.206V50.8014Z" fill="black"/>
<path d="M223.526 50.8014H213.366V60.9617H223.526V50.8014Z" fill="black"/>
<path d="M254.007 50.8014H243.847V60.9617H254.007V50.8014Z" fill="black"/>
<path d="M274.328 50.8014H264.167V60.9617H274.328V50.8014Z" fill="black"/>
<path d="M355.61 50.8014H345.449V60.9617H355.61V50.8014Z" fill="black"/>
<path d="M416.571 50.8014H406.411V60.9617H416.571V50.8014Z" fill="black"/>
<path d="M10.1603 60.9617H0V71.122H10.1603V60.9617Z" fill="black"/>
<path d="M20.3206 60.9617H10.1603V71.122H20.3206V60.9617Z" fill="black"/>
<path d="M30.4808 60.9617H20.3206V71.122H30.4808V60.9617Z" fill="black"/>
<path d="M40.6411 60.9617H30.4808V71.122H40.6411V60.9617Z" fill="black"/>
<path d="M50.8014 60.9617H40.6411V71.122H50.8014V60.9617Z" fill="black"/>
<path d="M60.9617 60.9617H50.8014V71.122H60.9617V60.9617Z" fill="black"/>
<path d="M71.122 60.9617H60.9617V71.122H71.122V60.9617Z" fill="black"/>
<path d="M91.4425 60.9617H81.2822V71.122H91.4425V60.9617Z" fill="black"/>
<path d="M111.763 60.9617H101.603V71.122H111.763V60.9617Z" fill="black"/>
<path d="M132.084 60.9617H121.923V71.122H132.084V60.9617Z" fill="black"/>
<path d="M152.404 60.9617H142.244V71.122H152.404V60.9617Z" fill="black"/>
<path d="M172.725 60.9617H162.564V71.122H172.725V60.9617Z" fill="black"/>
<path d="M193.045 60.9617H182.885V71.122H193.045V60.9617Z" fill="black"/>
<path d="M213.366 60.9617H203.206V71.122H213.366V60.9617Z" fill="black"/>
<path d="M233.686 60.9617H223.526V71.122H233.686V60.9617Z" fill="black"/>
<path d="M254.007 60.9617H243.847V71.122H254.007V60.9617Z" fill="black"/>
<path d="M274.328 60.9617H264.167V71.122H274.328V60.9617Z" fill="black"/>
<path d="M294.648 60.9617H284.488V71.122H294.648V60.9617Z" fill="black"/>
<path d="M314.969 60.9617H304.808V71.122H314.969V60.9617Z" fill="black"/>
<path d="M335.289 60.9617H325.129V71.122H335.289V60.9617Z" fill="black"/>
<path d="M355.61 60.9617H345.449V71.122H355.61V60.9617Z" fill="black"/>
<path d="M365.77 60.9617H355.61V71.122H365.77V60.9617Z" fill="black"/>
<path d="M375.93 60.9617H365.77V71.122H375.93V60.9617Z" fill="black"/>
<path d="M386.091 60.9617H375.93V71.122H386.091V60.9617Z" fill="black"/>
<path d="M396.251 60.9617H386.091V71.122H396.251V60.9617Z" fill="black"/>
<path d="M406.411 60.9617H396.251V71.122H406.411V60.9617Z" fill="black"/>
<path d="M416.571 60.9617H406.411V71.122H416.571V60.9617Z" fill="black"/>
<path d="M111.763 71.122H101.603V81.2822H111.763V71.122Z" fill="black"/>
<path d="M182.885 71.122H172.725V81.2822H182.885V71.122Z" fill="black"/>
<path d="M193.045 71.122H182.885V81.2822H193.045V71.122Z" fill="black"/>
<path d="M254.007 71.122H243.847V81.2822H254.007V71.122Z" fill="black"/>
<path d="M284.488 71.122H274.328V81.2822H284.488V71.122Z" fill="black"/>
<path d="M60.9617 81.2822H50.8014V91.4425H60.9617V81.2822Z" fill="black"/>
<path d="M71.122 81.2822H60.9617V91.4425H71.122V81.2822Z" fill="black"/>
<path d="M91.4425 81.2822H81.2822V91.4425H91.4425V81.2822Z" fill="black"/>
<path d="M111.763 81.2822H101.603V91.4425H111.763V81.2822Z" fill="black"/>
<path d="M121.923 81.2822H111.763V91.4425H121.923V81.2822Z" fill="black"/>
<path d="M152.404 81.2822H142.244V91.4425H152.404V81.2822Z" fill="black"/>
<path d="M162.564 81.2822H152.404V91.4425H162.564V81.2822Z" fill="black"/>
<path d="M172.725 81.2822H162.564V91.4425H172.725V81.2822Z" fill="black"/>
<path d="M182.885 81.2822H172.725V91.4425H182.885V81.2822Z" fill="black"/>
<path d="M223.526 81.2822H213.366V91.4425H223.526V81.2822Z" fill="black"/>
<path d="M233.686 81.2822H223.526V91.4425H233.686V81.2822Z" fill="black"/>
<path d="M243.847 81.2822H233.686V91.4425H243.847V81.2822Z" fill="black"/>
<path d="M254.007 81.2822H243.847V91.4425H254.007V81.2822Z" fill="black"/>
<path d="M284.488 81.2822H274.328V91.4425H284.488V81.2822Z" fill="black"/>
<path d="M304.808 81.2822H294.648V91.4425H304.808V81.2822Z" fill="black"/>
<path d="M314.969 81.2822H304.808V91.4425H314.969V81.2822Z" fill="black"/>
<path d="M335.289 81.2822H325.129V91.4425H335.289V81.2822Z" fill="black"/>
<path d="M345.449 81.2822H335.289V91.4425H345.449V81.2822Z" fill="black"/>
<path d="M365.77 81.2822H355.61V91.4425H365.77V81.2822Z" fill="black"/>
<path d="M386.091 81.2822H375.93V91.4425H386.091V81.2822Z" fill="black"/>
<path d="M416.571 81.2822H406.411V91.4425H416.571V81.2822Z" fill="black"/>
<path d="M10.1603 91.4425H0V101.603H10.1603V91.4425Z" fill="black"/>
<path d="M40.6411 91.4425H30.4808V101.603H40.6411V91.4425Z" fill="black"/>
<path d="M50.8014 91.4425H40.6411V101.603H50.8014V91.4425Z" fill="black"/>
<path d="M81.2822 91.4425H71.122V101.603H81.2822V91.4425Z" fill="black"/>
<path d="M91.4425 91.4425H81.2822V101.603H91.4425V91.4425Z" fill="black"/>
<path d="M101.603 91.4425H91.4425V101.603H101.603V91.4425Z" fill="black"/>
<path d="M142.244 91.4425H132.084V101.603H142.244V91.4425Z" fill="black"/>
<path d="M152.404 91.4425H142.244V101.603H152.404V91.4425Z" fill="black"/>
<path d="M172.725 91.4425H162.564V101.603H172.725V91.4425Z" fill="black"/>
<path d="M182.885 91.4425H172.725V101.603H182.885V91.4425Z" fill="black"/>
<path d="M203.206 91.4425H193.045V101.603H203.206V91.4425Z" fill="black"/>
<path d="M213.366 91.4425H203.206V101.603H213.366V91.4425Z" fill="black"/>
<path d="M223.526 91.4425H213.366V101.603H223.526V91.4425Z" fill="black"/>
<path d="M233.686 91.4425H223.526V101.603H233.686V91.4425Z" fill="black"/>
<path d="M243.847 91.4425H233.686V101.603H243.847V91.4425Z" fill="black"/>
<path d="M264.167 91.4425H254.007V101.603H264.167V91.4425Z" fill="black"/>
<path d="M304.808 91.4425H294.648V101.603H304.808V91.4425Z" fill="black"/>
<path d="M314.969 91.4425H304.808V101.603H314.969V91.4425Z" fill="black"/>
<path d="M325.129 91.4425H314.969V101.603H325.129V91.4425Z" fill="black"/>
<path d="M335.289 91.4425H325.129V101.603H335.289V91.4425Z" fill="black"/>
<path d="M355.61 91.4425H345.449V101.603H355.61V91.4425Z" fill="black"/>
<path d="M365.77 91.4425H355.61V101.603H365.77V91.4425Z" fill="black"/>
<path d="M375.93 91.4425H365.77V101.603H375.93V91.4425Z" fill="black"/>
<path d="M386.091 91.4425H375.93V101.603H386.091V91.4425Z" fill="black"/>
<path d="M406.411 91.4425H396.251V101.603H406.411V91.4425Z" fill="black"/>
<path d="M416.571 91.4425H406.411V101.603H416.571V91.4425Z" fill="black"/>
<path d="M40.6411 101.603H30.4808V111.763H40.6411V101.603Z" fill="black"/>
<path d="M60.9617 101.603H50.8014V111.763H60.9617V101.603Z" fill="black"/>
<path d="M71.122 101.603H60.9617V111.763H71.122V101.603Z" fill="black"/>
<path d="M91.4425 101.603H81.2822V111.763H91.4425V101.603Z" fill="black"/>
<path d="M101.603 101.603H91.4425V111.763H101.603V101.603Z" fill="black"/>
<path d="M142.244 101.603H132.084V111.763H142.244V101.603Z" fill="black"/>
<path d="M172.725 101.603H162.564V111.763H172.725V101.603Z" fill="black"/>
<path d="M182.885 101.603H172.725V111.763H182.885V101.603Z" fill="black"/>
<path d="M203.206 101.603H193.045V111.763H203.206V101.603Z" fill="black"/>
<path d="M213.366 101.603H203.206V111.763H213.366V101.603Z" fill="black"/>
<path d="M223.526 101.603H213.366V111.763H223.526V101.603Z" fill="black"/>
<path d="M233.686 101.603H223.526V111.763H233.686V101.603Z" fill="black"/>
<path d="M243.847 101.603H233.686V111.763H243.847V101.603Z" fill="black"/>
<path d="M254.007 101.603H243.847V111.763H254.007V101.603Z" fill="black"/>
<path d="M284.488 101.603H274.328V111.763H284.488V101.603Z" fill="black"/>
<path d="M314.969 101.603H304.808V111.763H314.969V101.603Z" fill="black"/>
<path d="M345.449 101.603H335.289V111.763H345.449V101.603Z" fill="black"/>
<path d="M386.091 101.603H375.93V111.763H386.091V101.603Z" fill="black"/>
<path d="M416.571 101.603H406.411V111.763H416.571V101.603Z" fill="black"/>
<path d="M10.1603 111.763H0V121.923H10.1603V111.763Z" fill="black"/>
<path d="M20.3206 111.763H10.1603V121.923H20.3206V111.763Z" fill="black"/>
<path d="M40.6411 111.763H30.4808V121.923H40.6411V111.763Z" fill="black"/>
<path d="M50.8014 111.763H40.6411V121.923H50.8014V111.763Z" fill="black"/>
<path d="M101.603 111.763H91.4425V121.923H101.603V111.763Z" fill="black"/>
<path d="M142.244 111.763H132.084V121.923H142.244V111.763Z" fill="black"/>
<path d="M182.885 111.763H172.725V121.923H182.885V111.763Z" fill="black"/>
<path d="M193.045 111.763H182.885V121.923H193.045V111.763Z" fill="black"/>
<path d="M203.206 111.763H193.045V121.923H203.206V111.763Z" fill="black"/>
<path d="M213.366 111.763H203.206V121.923H213.366V111.763Z" fill="black"/>
<path d="M223.526 111.763H213.366V121.923H223.526V111.763Z" fill="black"/>
<path d="M233.686 111.763H223.526V121.923H233.686V111.763Z" fill="black"/>
<path d="M254.007 111.763H243.847V121.923H254.007V111.763Z" fill="black"/>
<path d="M264.167 111.763H254.007V121.923H264.167V111.763Z" fill="black"/>
<path d="M274.328 111.763H264.167V121.923H274.328V111.763Z" fill="black"/>
<path d="M294.648 111.763H284.488V121.923H294.648V111.763Z" fill="black"/>
<path d="M304.808 111.763H294.648V121.923H304.808V111.763Z" fill="black"/>
<path d="M314.969 111.763H304.808V121.923H314.969V111.763Z" fill="black"/>
<path d="M325.129 111.763H314.969V121.923H325.129V111.763Z" fill="black"/>
<path d="M345.449 111.763H335.289V121.923H345.449V111.763Z" fill="black"/>
<path d="M365.77 111.763H355.61V121.923H365.77V111.763Z" fill="black"/>
<path d="M396.251 111.763H386.091V121.923H396.251V111.763Z" fill="black"/>
<path d="M416.571 111.763H406.411V121.923H416.571V111.763Z" fill="black"/>
<path d="M10.1603 121.923H0V132.084H10.1603V121.923Z" fill="black"/>
<path d="M20.3206 121.923H10.1603V132.084H20.3206V121.923Z" fill="black"/>
<path d="M30.4808 121.923H20.3206V132.084H30.4808V121.923Z" fill="black"/>
<path d="M40.6411 121.923H30.4808V132.084H40.6411V121.923Z" fill="black"/>
<path d="M50.8014 121.923H40.6411V132.084H50.8014V121.923Z" fill="black"/>
<path d="M60.9617 121.923H50.8014V132.084H60.9617V121.923Z" fill="black"/>
<path d="M71.122 121.923H60.9617V132.084H71.122V121.923Z" fill="black"/>
<path d="M91.4425 121.923H81.2822V132.084H91.4425V121.923Z" fill="black"/>
<path d="M101.603 121.923H91.4425V132.084H101.603V121.923Z" fill="black"/>
<path d="M132.084 121.923H121.923V132.084H132.084V121.923Z" fill="black"/>
<path d="M142.244 121.923H132.084V132.084H142.244V121.923Z" fill="black"/>
<path d="M162.564 121.923H152.404V132.084H162.564V121.923Z" fill="black"/>
<path d="M193.045 121.923H182.885V132.084H193.045V121.923Z" fill="black"/>
<path d="M243.847 121.923H233.686V132.084H243.847V121.923Z" fill="black"/>
<path d="M254.007 121.923H243.847V132.084H254.007V121.923Z" fill="black"/>
<path d="M264.167 121.923H254.007V132.084H264.167V121.923Z" fill="black"/>
<path d="M284.488 121.923H274.328V132.084H284.488V121.923Z" fill="black"/>
<path d="M325.129 121.923H314.969V132.084H325.129V121.923Z" fill="black"/>
<path d="M365.77 121.923H355.61V132.084H365.77V121.923Z" fill="black"/>
<path d="M375.93 121.923H365.77V132.084H375.93V121.923Z" fill="black"/>
<path d="M386.091 121.923H375.93V132.084H386.091V121.923Z" fill="black"/>
<path d="M406.411 121.923H396.251V132.084H406.411V121.923Z" fill="black"/>
<path d="M416.571 121.923H406.411V132.084H416.571V121.923Z" fill="black"/>
<path d="M10.1603 132.084H0V142.244H10.1603V132.084Z" fill="black"/>
<path d="M50.8014 132.084H40.6411L40.6411 142.244H50.8014V132.084Z" fill="black"/>
<path d="M101.603 132.084H91.4425V142.244H101.603V132.084Z" fill="black"/>
<path d="M121.923 132.084H111.763V142.244H121.923V132.084Z" fill="black"/>
<path d="M132.084 132.084H121.923V142.244H132.084V132.084Z" fill="black"/>
<path d="M162.564 132.084H152.404V142.244H162.564V132.084Z" fill="black"/>
<path d="M172.725 132.084H162.564V142.244H172.725V132.084Z" fill="black"/>
<path d="M193.045 132.084H182.885V142.244H193.045V132.084Z" fill="black"/>
<path d="M213.366 132.084H203.206V142.244H213.366V132.084Z" fill="black"/>
<path d="M223.526 132.084H213.366V142.244H223.526V132.084Z" fill="black"/>
<path d="M233.686 132.084H223.526V142.244H233.686V132.084Z" fill="black"/>
<path d="M264.167 132.084H254.007V142.244H264.167V132.084Z" fill="black"/>
<path d="M274.328 132.084H264.167V142.244H274.328V132.084Z" fill="black"/>
<path d="M294.648 132.084H284.488V142.244H294.648V132.084Z" fill="black"/>
<path d="M314.969 132.084H304.808V142.244H314.969V132.084Z" fill="black"/>
<path d="M375.93 132.084H365.77V142.244H375.93V132.084Z" fill="black"/>
<path d="M386.091 132.084H375.93V142.244H386.091V132.084Z" fill="black"/>
<path d="M396.251 132.084H386.091V142.244H396.251V132.084Z" fill="black"/>
<path d="M416.571 132.084H406.411V142.244H416.571V132.084Z" fill="black"/>
<path d="M10.1603 142.244H0V152.404H10.1603V142.244Z" fill="black"/>
<path d="M20.3206 142.244H10.1603V152.404H20.3206V142.244Z" fill="black"/>
<path d="M50.8014 142.244H40.6411V152.404H50.8014V142.244Z" fill="black"/>
<path d="M60.9617 142.244H50.8014V152.404H60.9617V142.244Z" fill="black"/>
<path d="M71.122 142.244H60.9617V152.404H71.122V142.244Z" fill="black"/>
<path d="M81.2822 142.244H71.122V152.404H81.2822V142.244Z" fill="black"/>
<path d="M91.4425 142.244H81.2822V152.404H91.4425V142.244Z" fill="black"/>
<path d="M101.603 142.244H91.4425V152.404H101.603V142.244Z" fill="black"/>
<path d="M111.763 142.244H101.603V152.404H111.763V142.244Z" fill="black"/>
<path d="M142.244 142.244H132.084V152.404H142.244V142.244Z" fill="black"/>
<path d="M172.725 142.244H162.564V152.404H172.725V142.244Z" fill="black"/>
<path d="M193.045 142.244H182.885V152.404H193.045V142.244Z" fill="black"/>
<path d="M203.206 142.244H193.045V152.404H203.206V142.244Z" fill="black"/>
<path d="M233.686 142.244H223.526V152.404H233.686V142.244Z" fill="black"/>
<path d="M254.007 142.244H243.847V152.404H254.007V142.244Z" fill="black"/>
<path d="M274.328 142.244H264.167V152.404H274.328V142.244Z" fill="black"/>
<path d="M314.969 142.244H304.808V152.404H314.969V142.244Z" fill="black"/>
<path d="M375.93 142.244H365.77V152.404H375.93V142.244Z" fill="black"/>
<path d="M396.251 142.244H386.091V152.404H396.251V142.244Z" fill="black"/>
<path d="M416.571 142.244H406.411V152.404H416.571V142.244Z" fill="black"/>
<path d="M20.3206 152.404H10.1603V162.564H20.3206V152.404Z" fill="black"/>
<path d="M30.4808 152.404H20.3206V162.564H30.4808V152.404Z" fill="black"/>
<path d="M50.8014 152.404H40.6411V162.564H50.8014V152.404Z" fill="black"/>
<path d="M60.9617 152.404H50.8014V162.564H60.9617V152.404Z" fill="black"/>
<path d="M81.2822 152.404H71.122V162.564H81.2822V152.404Z" fill="black"/>
<path d="M111.763 152.404H101.603V162.564H111.763V152.404Z" fill="black"/>
<path d="M121.923 152.404H111.763V162.564H121.923V152.404Z" fill="black"/>
<path d="M132.084 152.404H121.923V162.564H132.084V152.404Z" fill="black"/>
<path d="M152.404 152.404H142.244V162.564H152.404V152.404Z" fill="black"/>
<path d="M193.045 152.404H182.885V162.564H193.045V152.404Z" fill="black"/>
<path d="M203.206 152.404H193.045V162.564H203.206V152.404Z" fill="black"/>
<path d="M233.686 152.404H223.526V162.564H233.686V152.404Z" fill="black"/>
<path d="M254.007 152.404H243.847V162.564H254.007V152.404Z" fill="black"/>
<path d="M314.969 152.404H304.808V162.564H314.969V152.404Z" fill="black"/>
<path d="M335.289 152.404H325.129V162.564H335.289V152.404Z" fill="black"/>
<path d="M355.61 152.404H345.449V162.564H355.61V152.404Z" fill="black"/>
<path d="M365.77 152.404H355.61V162.564H365.77V152.404Z" fill="black"/>
<path d="M406.411 152.404H396.251V162.564H406.411V152.404Z" fill="black"/>
<path d="M50.8014 162.564H40.6411V172.725H50.8014V162.564Z" fill="black"/>
<path d="M60.9617 162.564H50.8014V172.725H60.9617V162.564Z" fill="black"/>
<path d="M71.122 162.564H60.9617V172.725H71.122V162.564Z" fill="black"/>
<path d="M81.2822 162.564H71.122V172.725H81.2822V162.564Z" fill="black"/>
<path d="M111.763 162.564H101.603V172.725H111.763V162.564Z" fill="black"/>
<path d="M121.923 162.564H111.763V172.725H121.923V162.564Z" fill="black"/>
<path d="M132.084 162.564H121.923V172.725H132.084V162.564Z" fill="black"/>
<path d="M142.244 162.564H132.084V172.725H142.244V162.564Z" fill="black"/>
<path d="M152.404 162.564H142.244V172.725H152.404V162.564Z" fill="black"/>
<path d="M162.564 162.564H152.404V172.725H162.564V162.564Z" fill="black"/>
<path d="M182.885 162.564H172.725V172.725H182.885V162.564Z" fill="black"/>
<path d="M193.045 162.564H182.885V172.725H193.045V162.564Z" fill="black"/>
<path d="M223.526 162.564H213.366V172.725H223.526V162.564Z" fill="black"/>
<path d="M233.686 162.564H223.526V172.725H233.686V162.564Z" fill="black"/>
<path d="M243.847 162.564H233.686V172.725H243.847V162.564Z" fill="black"/>
<path d="M274.328 162.564H264.167V172.725H274.328V162.564Z" fill="black"/>
<path d="M294.648 162.564H284.488V172.725H294.648V162.564Z" fill="black"/>
<path d="M335.289 162.564H325.129V172.725H335.289V162.564Z" fill="black"/>
<path d="M345.449 162.564H335.289V172.725H345.449V162.564Z" fill="black"/>
<path d="M365.77 162.564H355.61V172.725H365.77V162.564Z" fill="black"/>
<path d="M386.091 162.564H375.93V172.725H386.091V162.564Z" fill="black"/>
<path d="M406.411 162.564H396.251V172.725H406.411V162.564Z" fill="black"/>
<path d="M416.571 162.564H406.411V172.725H416.571V162.564Z" fill="black"/>
<path d="M10.1603 172.725H0V182.885H10.1603V172.725Z" fill="black"/>
<path d="M40.6411 172.725H30.4808V182.885H40.6411L40.6411 172.725Z" fill="black"/>
<path d="M60.9617 172.725H50.8014V182.885H60.9617V172.725Z" fill="black"/>
<path d="M81.2822 172.725H71.122V182.885H81.2822V172.725Z" fill="black"/>
<path d="M101.603 172.725H91.4425V182.885H101.603V172.725Z" fill="black"/>
<path d="M111.763 172.725H101.603V182.885H111.763V172.725Z" fill="black"/>
<path d="M132.084 172.725H121.923V182.885H132.084V172.725Z" fill="black"/>
<path d="M142.244 172.725H132.084V182.885H142.244V172.725Z" fill="black"/>
<path d="M162.564 172.725H152.404V182.885H162.564V172.725Z" fill="black"/>
<path d="M172.725 172.725H162.564V182.885H172.725V172.725Z" fill="black"/>
<path d="M203.206 172.725H193.045V182.885H203.206V172.725Z" fill="black"/>
<path d="M213.366 172.725H203.206V182.885H213.366V172.725Z" fill="black"/>
<path d="M233.686 172.725H223.526V182.885H233.686V172.725Z" fill="black"/>
<path d="M254.007 172.725H243.847V182.885H254.007V172.725Z" fill="black"/>
<path d="M264.167 172.725H254.007V182.885H264.167V172.725Z" fill="black"/>
<path d="M274.328 172.725H264.167V182.885H274.328V172.725Z" fill="black"/>
<path d="M284.488 172.725H274.328V182.885H284.488V172.725Z" fill="black"/>
<path d="M294.648 172.725H284.488V182.885H294.648V172.725Z" fill="black"/>
<path d="M325.129 172.725H314.969V182.885H325.129V172.725Z" fill="black"/>
<path d="M355.61 172.725H345.449V182.885H355.61V172.725Z" fill="black"/>
<path d="M365.77 172.725H355.61V182.885H365.77V172.725Z" fill="black"/>
<path d="M386.091 172.725H375.93V182.885H386.091V172.725Z" fill="black"/>
<path d="M406.411 172.725H396.251V182.885H406.411V172.725Z" fill="black"/>
<path d="M416.571 172.725H406.411V182.885H416.571V172.725Z" fill="black"/>
<path d="M10.1603 182.885H0V193.045H10.1603V182.885Z" fill="black"/>
<path d="M20.3206 182.885H10.1603V193.045H20.3206V182.885Z" fill="black"/>
<path d="M30.4808 182.885H20.3206V193.045H30.4808V182.885Z" fill="black"/>
<path d="M40.6411 182.885H30.4808V193.045H40.6411V182.885Z" fill="black"/>
<path d="M50.8014 182.885H40.6411V193.045H50.8014V182.885Z" fill="black"/>
<path d="M60.9617 182.885H50.8014V193.045H60.9617V182.885Z" fill="black"/>
<path d="M71.122 182.885H60.9617V193.045H71.122V182.885Z" fill="black"/>
<path d="M81.2822 182.885H71.122V193.045H81.2822V182.885Z" fill="black"/>
<path d="M121.923 182.885H111.763V193.045H121.923V182.885Z" fill="black"/>
<path d="M142.244 182.885H132.084V193.045H142.244V182.885Z" fill="black"/>
<path d="M152.404 182.885H142.244V193.045H152.404V182.885Z" fill="black"/>
<path d="M162.564 182.885H152.404V193.045H162.564V182.885Z" fill="black"/>
<path d="M172.725 182.885H162.564V193.045H172.725V182.885Z" fill="black"/>
<path d="M182.885 182.885H172.725V193.045H182.885V182.885Z" fill="black"/>
<path d="M193.045 182.885H182.885V193.045H193.045V182.885Z" fill="black"/>
<path d="M203.206 182.885H193.045V193.045H203.206V182.885Z" fill="black"/>
<path d="M213.366 182.885H203.206V193.045H213.366V182.885Z" fill="black"/>
<path d="M223.526 182.885H213.366V193.045H223.526V182.885Z" fill="black"/>
<path d="M243.847 182.885H233.686V193.045H243.847V182.885Z" fill="black"/>
<path d="M264.167 182.885H254.007V193.045H264.167V182.885Z" fill="black"/>
<path d="M284.488 182.885H274.328V193.045H284.488V182.885Z" fill="black"/>
<path d="M406.411 182.885H396.251V193.045H406.411V182.885Z" fill="black"/>
<path d="M10.1603 193.045H0V203.206H10.1603V193.045Z" fill="black"/>
<path d="M40.6411 193.045H30.4808V203.206H40.6411V193.045Z" fill="black"/>
<path d="M60.9617 193.045H50.8014V203.206H60.9617V193.045Z" fill="black"/>
<path d="M81.2822 193.045H71.122V203.206H81.2822V193.045Z" fill="black"/>
<path d="M111.763 193.045H101.603V203.206H111.763V193.045Z" fill="black"/>
<path d="M132.084 193.045H121.923V203.206H132.084V193.045Z" fill="black"/>
<path d="M162.564 193.045H152.404V203.206H162.564V193.045Z" fill="black"/>
<path d="M172.725 193.045H162.564V203.206H172.725V193.045Z" fill="black"/>
<path d="M233.686 193.045H223.526V203.206H233.686V193.045Z" fill="black"/>
<path d="M243.847 193.045H233.686V203.206H243.847V193.045Z" fill="black"/>
<path d="M264.167 193.045H254.007V203.206H264.167V193.045Z" fill="black"/>
<path d="M294.648 193.045H284.488V203.206H294.648V193.045Z" fill="black"/>
<path d="M304.808 193.045H294.648V203.206H304.808V193.045Z" fill="black"/>
<path d="M314.969 193.045H304.808V203.206H314.969V193.045Z" fill="black"/>
<path d="M325.129 193.045H314.969V203.206H325.129V193.045Z" fill="black"/>
<path d="M335.289 193.045H325.129V203.206H335.289V193.045Z" fill="black"/>
<path d="M355.61 193.045H345.449V203.206H355.61V193.045Z" fill="black"/>
<path d="M365.77 193.045H355.61V203.206H365.77V193.045Z" fill="black"/>
<path d="M375.93 193.045H365.77V203.206H375.93V193.045Z" fill="black"/>
<path d="M386.091 193.045H375.93V203.206H386.091V193.045Z" fill="black"/>
<path d="M20.3206 203.206H10.1603V213.366H20.3206V203.206Z" fill="black"/>
<path d="M60.9617 203.206H50.8014V213.366H60.9617V203.206Z" fill="black"/>
<path d="M71.122 203.206H60.9617V213.366H71.122V203.206Z" fill="black"/>
<path d="M101.603 203.206H91.4425V213.366H101.603V203.206Z" fill="black"/>
<path d="M111.763 203.206H101.603V213.366H111.763V203.206Z" fill="black"/>
<path d="M152.404 203.206H142.244V213.366H152.404V203.206Z" fill="black"/>
<path d="M182.885 203.206H172.725V213.366H182.885V203.206Z" fill="black"/>
<path d="M213.366 203.206H203.206V213.366H213.366V203.206Z" fill="black"/>
<path d="M223.526 203.206H213.366V213.366H223.526V203.206Z" fill="black"/>
<path d="M243.847 203.206H233.686V213.366H243.847V203.206Z" fill="black"/>
<path d="M254.007 203.206H243.847V213.366H254.007V203.206Z" fill="black"/>
<path d="M294.648 203.206H284.488V213.366H294.648V203.206Z" fill="black"/>
<path d="M314.969 203.206H304.808V213.366H314.969V203.206Z" fill="black"/>
<path d="M325.129 203.206H314.969V213.366H325.129V203.206Z" fill="black"/>
<path d="M335.289 203.206H325.129V213.366H335.289V203.206Z" fill="black"/>
<path d="M365.77 203.206H355.61V213.366H365.77V203.206Z" fill="black"/>
<path d="M386.091 203.206H375.93V213.366H386.091V203.206Z" fill="black"/>
<path d="M396.251 203.206H386.091V213.366H396.251V203.206Z" fill="black"/>
<path d="M406.411 203.206H396.251V213.366H406.411V203.206Z" fill="black"/>
<path d="M20.3206 213.366H10.1603V223.526H20.3206V213.366Z" fill="black"/>
<path d="M40.6411 213.366H30.4808V223.526H40.6411V213.366Z" fill="black"/>
<path d="M60.9617 213.366H50.8014V223.526H60.9617V213.366Z" fill="black"/>
<path d="M81.2822 213.366H71.122V223.526H81.2822V213.366Z" fill="black"/>
<path d="M91.4425 213.366H81.2822V223.526H91.4425V213.366Z" fill="black"/>
<path d="M101.603 213.366H91.4425V223.526H101.603V213.366Z" fill="black"/>
<path d="M121.923 213.366H111.763V223.526H121.923V213.366Z" fill="black"/>
<path d="M132.084 213.366H121.923V223.526H132.084V213.366Z" fill="black"/>
<path d="M142.244 213.366H132.084V223.526H142.244V213.366Z" fill="black"/>
<path d="M162.564 213.366H152.404V223.526H162.564V213.366Z" fill="black"/>
<path d="M172.725 213.366H162.564V223.526H172.725V213.366Z" fill="black"/>
<path d="M193.045 213.366H182.885V223.526H193.045V213.366Z" fill="black"/>
<path d="M233.686 213.366H223.526V223.526H233.686V213.366Z" fill="black"/>
<path d="M243.847 213.366H233.686V223.526H243.847V213.366Z" fill="black"/>
<path d="M254.007 213.366H243.847V223.526H254.007V213.366Z" fill="black"/>
<path d="M264.167 213.366H254.007V223.526H264.167V213.366Z" fill="black"/>
<path d="M274.328 213.366H264.167V223.526H274.328V213.366Z" fill="black"/>
<path d="M284.488 213.366H274.328V223.526H284.488V213.366Z" fill="black"/>
<path d="M294.648 213.366H284.488V223.526H294.648V213.366Z" fill="black"/>
<path d="M304.808 213.366H294.648V223.526H304.808V213.366Z" fill="black"/>
<path d="M314.969 213.366H304.808V223.526H314.969V213.366Z" fill="black"/>
<path d="M325.129 213.366H314.969V223.526H325.129V213.366Z" fill="black"/>
<path d="M335.289 213.366H325.129V223.526H335.289V213.366Z" fill="black"/>
<path d="M345.449 213.366H335.289V223.526H345.449V213.366Z" fill="black"/>
<path d="M365.77 213.366H355.61V223.526H365.77V213.366Z" fill="black"/>
<path d="M396.251 213.366H386.091V223.526H396.251V213.366Z" fill="black"/>
<path d="M406.411 213.366H396.251V223.526H406.411V213.366Z" fill="black"/>
<path d="M416.571 213.366H406.411V223.526H416.571V213.366Z" fill="black"/>
<path d="M20.3206 223.526H10.1603V233.686H20.3206V223.526Z" fill="black"/>
<path d="M50.8014 223.526H40.6411L40.6411 233.686H50.8014V223.526Z" fill="black"/>
<path d="M60.9617 223.526H50.8014V233.686H60.9617V223.526Z" fill="black"/>
<path d="M71.122 223.526H60.9617V233.686H71.122V223.526Z" fill="black"/>
<path d="M81.2822 223.526H71.122V233.686H81.2822V223.526Z" fill="black"/>
<path d="M101.603 223.526H91.4425V233.686H101.603V223.526Z" fill="black"/>
<path d="M111.763 223.526H101.603V233.686H111.763V223.526Z" fill="black"/>
<path d="M121.923 223.526H111.763V233.686H121.923V223.526Z" fill="black"/>
<path d="M152.404 223.526H142.244V233.686H152.404V223.526Z" fill="black"/>
<path d="M162.564 223.526H152.404V233.686H162.564V223.526Z" fill="black"/>
<path d="M172.725 223.526H162.564V233.686H172.725V223.526Z" fill="black"/>
<path d="M203.206 223.526H193.045V233.686H203.206V223.526Z" fill="black"/>
<path d="M264.167 223.526H254.007V233.686H264.167V223.526Z" fill="black"/>
<path d="M274.328 223.526H264.167V233.686H274.328V223.526Z" fill="black"/>
<path d="M284.488 223.526H274.328V233.686H284.488V223.526Z" fill="black"/>
<path d="M304.808 223.526H294.648V233.686H304.808V223.526Z" fill="black"/>
<path d="M314.969 223.526H304.808V233.686H314.969V223.526Z" fill="black"/>
<path d="M325.129 223.526H314.969V233.686H325.129V223.526Z" fill="black"/>
<path d="M335.289 223.526H325.129V233.686H335.289V223.526Z" fill="black"/>
<path d="M345.449 223.526H335.289V233.686H345.449V223.526Z" fill="black"/>
<path d="M365.77 223.526H355.61V233.686H365.77V223.526Z" fill="black"/>
<path d="M375.93 223.526H365.77V233.686H375.93V223.526Z" fill="black"/>
<path d="M406.411 223.526H396.251V233.686H406.411V223.526Z" fill="black"/>
<path d="M416.571 223.526H406.411V233.686H416.571V223.526Z" fill="black"/>
<path d="M10.1603 233.686H0V243.847H10.1603V233.686Z" fill="black"/>
<path d="M20.3206 233.686H10.1603V243.847H20.3206V233.686Z" fill="black"/>
<path d="M30.4808 233.686H20.3206V243.847H30.4808V233.686Z" fill="black"/>
<path d="M40.6411 233.686H30.4808V243.847H40.6411L40.6411 233.686Z" fill="black"/>
<path d="M50.8014 233.686H40.6411L40.6411 243.847H50.8014V233.686Z" fill="black"/>
<path d="M91.4425 233.686H81.2822V243.847H91.4425V233.686Z" fill="black"/>
<path d="M142.244 233.686H132.084V243.847H142.244V233.686Z" fill="black"/>
<path d="M172.725 233.686H162.564V243.847H172.725V233.686Z" fill="black"/>
<path d="M182.885 233.686H172.725V243.847H182.885V233.686Z" fill="black"/>
<path d="M203.206 233.686H193.045V243.847H203.206V233.686Z" fill="black"/>
<path d="M213.366 233.686H203.206V243.847H213.366V233.686Z" fill="black"/>
<path d="M243.847 233.686H233.686V243.847H243.847V233.686Z" fill="black"/>
<path d="M254.007 233.686H243.847V243.847H254.007V233.686Z" fill="black"/>
<path d="M274.328 233.686H264.167V243.847H274.328V233.686Z" fill="black"/>
<path d="M294.648 233.686H284.488V243.847H294.648V233.686Z" fill="black"/>
<path d="M325.129 233.686H314.969V243.847H325.129V233.686Z" fill="black"/>
<path d="M335.289 233.686H325.129V243.847H335.289V233.686Z" fill="black"/>
<path d="M365.77 233.686H355.61V243.847H365.77V233.686Z" fill="black"/>
<path d="M396.251 233.686H386.091V243.847H396.251V233.686Z" fill="black"/>
<path d="M406.411 233.686H396.251V243.847H406.411V233.686Z" fill="black"/>
<path d="M10.1603 243.847H0V254.007H10.1603V243.847Z" fill="black"/>
<path d="M20.3206 243.847H10.1603V254.007H20.3206V243.847Z" fill="black"/>
<path d="M60.9617 243.847H50.8014V254.007H60.9617V243.847Z" fill="black"/>
<path d="M71.122 243.847H60.9617V254.007H71.122V243.847Z" fill="black"/>
<path d="M91.4425 243.847H81.2822V254.007H91.4425V243.847Z" fill="black"/>
<path d="M101.603 243.847H91.4425V254.007H101.603V243.847Z" fill="black"/>
<path d="M132.084 243.847H121.923V254.007H132.084V243.847Z" fill="black"/>
<path d="M142.244 243.847H132.084V254.007H142.244V243.847Z" fill="black"/>
<path d="M152.404 243.847H142.244V254.007H152.404V243.847Z" fill="black"/>
<path d="M162.564 243.847H152.404V254.007H162.564V243.847Z" fill="black"/>
<path d="M223.526 243.847H213.366V254.007H223.526V243.847Z" fill="black"/>
<path d="M233.686 243.847H223.526V254.007H233.686V243.847Z" fill="black"/>
<path d="M243.847 243.847H233.686V254.007H243.847V243.847Z" fill="black"/>
<path d="M254.007 243.847H243.847V254.007H254.007V243.847Z" fill="black"/>
<path d="M264.167 243.847H254.007V254.007H264.167V243.847Z" fill="black"/>
<path d="M274.328 243.847H264.167V254.007H274.328V243.847Z" fill="black"/>
<path d="M284.488 243.847H274.328V254.007H284.488V243.847Z" fill="black"/>
<path d="M355.61 243.847H345.449V254.007H355.61V243.847Z" fill="black"/>
<path d="M365.77 243.847H355.61V254.007H365.77V243.847Z" fill="black"/>
<path d="M375.93 243.847H365.77V254.007H375.93V243.847Z" fill="black"/>
<path d="M386.091 243.847H375.93V254.007H386.091V243.847Z" fill="black"/>
<path d="M406.411 243.847H396.251V254.007H406.411V243.847Z" fill="black"/>
<path d="M416.571 243.847H406.411V254.007H416.571V243.847Z" fill="black"/>
<path d="M10.1603 254.007H0V264.167H10.1603V254.007Z" fill="black"/>
<path d="M20.3206 254.007H10.1603V264.167H20.3206V254.007Z" fill="black"/>
<path d="M30.4808 254.007H20.3206V264.167H30.4808V254.007Z" fill="black"/>
<path d="M40.6411 254.007H30.4808V264.167H40.6411V254.007Z" fill="black"/>
<path d="M50.8014 254.007H40.6411V264.167H50.8014V254.007Z" fill="black"/>
<path d="M91.4425 254.007H81.2822V264.167H91.4425V254.007Z" fill="black"/>
<path d="M111.763 254.007H101.603V264.167H111.763V254.007Z" fill="black"/>
<path d="M121.923 254.007H111.763V264.167H121.923V254.007Z" fill="black"/>
<path d="M132.084 254.007H121.923V264.167H132.084V254.007Z" fill="black"/>
<path d="M152.404 254.007H142.244V264.167H152.404V254.007Z" fill="black"/>
<path d="M162.564 254.007H152.404V264.167H162.564V254.007Z" fill="black"/>
<path d="M182.885 254.007H172.725V264.167H182.885V254.007Z" fill="black"/>
<path d="M223.526 254.007H213.366V264.167H223.526V254.007Z" fill="black"/>
<path d="M233.686 254.007H223.526V264.167H233.686V254.007Z" fill="black"/>
<path d="M243.847 254.007H233.686V264.167H243.847V254.007Z" fill="black"/>
<path d="M254.007 254.007H243.847V264.167H254.007V254.007Z" fill="black"/>
<path d="M274.328 254.007H264.167V264.167H274.328V254.007Z" fill="black"/>
<path d="M284.488 254.007H274.328V264.167H284.488V254.007Z" fill="black"/>
<path d="M304.808 254.007H294.648V264.167H304.808V254.007Z" fill="black"/>
<path d="M335.289 254.007H325.129V264.167H335.289V254.007Z" fill="black"/>
<path d="M396.251 254.007H386.091V264.167H396.251V254.007Z" fill="black"/>
<path d="M406.411 254.007H396.251V264.167H406.411V254.007Z" fill="black"/>
<path d="M20.3206 264.167H10.1603V274.328H20.3206V264.167Z" fill="black"/>
<path d="M40.6411 264.167H30.4808V274.328H40.6411V264.167Z" fill="black"/>
<path d="M50.8014 264.167H40.6411V274.328H50.8014V264.167Z" fill="black"/>
<path d="M60.9617 264.167H50.8014V274.328H60.9617V264.167Z" fill="black"/>
<path d="M71.122 264.167H60.9617V274.328H71.122V264.167Z" fill="black"/>
<path d="M91.4425 264.167H81.2822V274.328H91.4425V264.167Z" fill="black"/>
<path d="M111.763 264.167H101.603V274.328H111.763V264.167Z" fill="black"/>
<path d="M152.404 264.167H142.244V274.328H152.404V264.167Z" fill="black"/>
<path d="M162.564 264.167H152.404V274.328H162.564V264.167Z" fill="black"/>
<path d="M182.885 264.167H172.725V274.328H182.885V264.167Z" fill="black"/>
<path d="M193.045 264.167H182.885V274.328H193.045V264.167Z" fill="black"/>
<path d="M203.206 264.167H193.045V274.328H203.206V264.167Z" fill="black"/>
<path d="M223.526 264.167H213.366V274.328H223.526V264.167Z" fill="black"/>
<path d="M233.686 264.167H223.526V274.328H233.686V264.167Z" fill="black"/>
<path d="M264.167 264.167H254.007V274.328H264.167V264.167Z" fill="black"/>
<path d="M284.488 264.167H274.328V274.328H284.488V264.167Z" fill="black"/>
<path d="M304.808 264.167H294.648V274.328H304.808V264.167Z" fill="black"/>
<path d="M314.969 264.167H304.808V274.328H314.969V264.167Z" fill="black"/>
<path d="M325.129 264.167H314.969V274.328H325.129V264.167Z" fill="black"/>
<path d="M335.289 264.167H325.129V274.328H335.289V264.167Z" fill="black"/>
<path d="M365.77 264.167H355.61V274.328H365.77V264.167Z" fill="black"/>
<path d="M396.251 264.167H386.091V274.328H396.251V264.167Z" fill="black"/>
<path d="M10.1603 274.328H0V284.488H10.1603V274.328Z" fill="black"/>
<path d="M20.3206 274.328H10.1603V284.488H20.3206V274.328Z" fill="black"/>
<path d="M40.6411 274.328H30.4808V284.488H40.6411V274.328Z" fill="black"/>
<path d="M50.8014 274.328H40.6411V284.488H50.8014V274.328Z" fill="black"/>
<path d="M60.9617 274.328H50.8014V284.488H60.9617V274.328Z" fill="black"/>
<path d="M81.2822 274.328H71.122V284.488H81.2822V274.328Z" fill="black"/>
<path d="M91.4425 274.328H81.2822V284.488H91.4425V274.328Z" fill="black"/>
<path d="M121.923 274.328H111.763V284.488H121.923V274.328Z" fill="black"/>
<path d="M142.244 274.328H132.084V284.488H142.244V274.328Z" fill="black"/>
<path d="M162.564 274.328H152.404V284.488H162.564V274.328Z" fill="black"/>
<path d="M203.206 274.328H193.045V284.488H203.206V274.328Z" fill="black"/>
<path d="M254.007 274.328H243.847V284.488H254.007V274.328Z" fill="black"/>
<path d="M294.648 274.328H284.488V284.488H294.648V274.328Z" fill="black"/>
<path d="M304.808 274.328H294.648V284.488H304.808V274.328Z" fill="black"/>
<path d="M314.969 274.328H304.808V284.488H314.969V274.328Z" fill="black"/>
<path d="M335.289 274.328H325.129V284.488H335.289V274.328Z" fill="black"/>
<path d="M365.77 274.328H355.61V284.488H365.77V274.328Z" fill="black"/>
<path d="M10.1603 284.488H0V294.648H10.1603V284.488Z" fill="black"/>
<path d="M30.4808 284.488H20.3206V294.648H30.4808V284.488Z" fill="black"/>
<path d="M50.8014 284.488H40.6411L40.6411 294.648H50.8014V284.488Z" fill="black"/>
<path d="M71.122 284.488H60.9617V294.648H71.122V284.488Z" fill="black"/>
<path d="M101.603 284.488H91.4425V294.648H101.603V284.488Z" fill="black"/>
<path d="M121.923 284.488H111.763V294.648H121.923V284.488Z" fill="black"/>
<path d="M142.244 284.488H132.084V294.648H142.244V284.488Z" fill="black"/>
<path d="M182.885 284.488H172.725V294.648H182.885V284.488Z" fill="black"/>
<path d="M203.206 284.488H193.045V294.648H203.206V284.488Z" fill="black"/>
<path d="M213.366 284.488H203.206V294.648H213.366V284.488Z" fill="black"/>
<path d="M223.526 284.488H213.366V294.648H223.526V284.488Z" fill="black"/>
<path d="M233.686 284.488H223.526V294.648H233.686V284.488Z" fill="black"/>
<path d="M243.847 284.488H233.686V294.648H243.847V284.488Z" fill="black"/>
<path d="M254.007 284.488H243.847V294.648H254.007V284.488Z" fill="black"/>
<path d="M274.328 284.488H264.167V294.648H274.328V284.488Z" fill="black"/>
<path d="M304.808 284.488H294.648V294.648H304.808V284.488Z" fill="black"/>
<path d="M314.969 284.488H304.808V294.648H314.969V284.488Z" fill="black"/>
<path d="M335.289 284.488H325.129V294.648H335.289V284.488Z" fill="black"/>
<path d="M345.449 284.488H335.289V294.648H345.449V284.488Z" fill="black"/>
<path d="M375.93 284.488H365.77V294.648H375.93V284.488Z" fill="black"/>
<path d="M386.091 284.488H375.93V294.648H386.091V284.488Z" fill="black"/>
<path d="M416.571 284.488H406.411V294.648H416.571V284.488Z" fill="black"/>
<path d="M20.3206 294.648H10.1603V304.808H20.3206V294.648Z" fill="black"/>
<path d="M30.4808 294.648H20.3206V304.808H30.4808V294.648Z" fill="black"/>
<path d="M40.6411 294.648H30.4808V304.808H40.6411L40.6411 294.648Z" fill="black"/>
<path d="M60.9617 294.648H50.8014V304.808H60.9617V294.648Z" fill="black"/>
<path d="M81.2822 294.648H71.122V304.808H81.2822V294.648Z" fill="black"/>
<path d="M101.603 294.648H91.4425V304.808H101.603V294.648Z" fill="black"/>
<path d="M111.763 294.648H101.603V304.808H111.763V294.648Z" fill="black"/>
<path d="M132.084 294.648H121.923V304.808H132.084V294.648Z" fill="black"/>
<path d="M142.244 294.648H132.084V304.808H142.244V294.648Z" fill="black"/>
<path d="M162.564 294.648H152.404V304.808H162.564V294.648Z" fill="black"/>
<path d="M172.725 294.648H162.564V304.808H172.725V294.648Z" fill="black"/>
<path d="M182.885 294.648H172.725V304.808H182.885V294.648Z" fill="black"/>
<path d="M193.045 294.648H182.885V304.808H193.045V294.648Z" fill="black"/>
<path d="M213.366 294.648H203.206V304.808H213.366V294.648Z" fill="black"/>
<path d="M233.686 294.648H223.526V304.808H233.686V294.648Z" fill="black"/>
<path d="M254.007 294.648H243.847V304.808H254.007V294.648Z" fill="black"/>
<path d="M264.167 294.648H254.007V304.808H264.167V294.648Z" fill="black"/>
<path d="M274.328 294.648H264.167V304.808H274.328V294.648Z" fill="black"/>
<path d="M284.488 294.648H274.328V304.808H284.488V294.648Z" fill="black"/>
<path d="M294.648 294.648H284.488V304.808H294.648V294.648Z" fill="black"/>
<path d="M325.129 294.648H314.969V304.808H325.129V294.648Z" fill="black"/>
<path d="M345.449 294.648H335.289V304.808H345.449V294.648Z" fill="black"/>
<path d="M386.091 294.648H375.93V304.808H386.091V294.648Z" fill="black"/>
<path d="M406.411 294.648H396.251V304.808H406.411V294.648Z" fill="black"/>
<path d="M416.571 294.648H406.411V304.808H416.571V294.648Z" fill="black"/>
<path d="M71.122 304.808H60.9617V314.969H71.122V304.808Z" fill="black"/>
<path d="M111.763 304.808H101.603V314.969H111.763V304.808Z" fill="black"/>
<path d="M121.923 304.808H111.763V314.969H121.923V304.808Z" fill="black"/>
<path d="M152.404 304.808H142.244V314.969H152.404V304.808Z" fill="black"/>
<path d="M243.847 304.808H233.686V314.969H243.847V304.808Z" fill="black"/>
<path d="M264.167 304.808H254.007V314.969H264.167V304.808Z" fill="black"/>
<path d="M284.488 304.808H274.328V314.969H284.488V304.808Z" fill="black"/>
<path d="M304.808 304.808H294.648V314.969H304.808V304.808Z" fill="black"/>
<path d="M335.289 304.808H325.129V314.969H335.289V304.808Z" fill="black"/>
<path d="M345.449 304.808H335.289V314.969H345.449V304.808Z" fill="black"/>
<path d="M355.61 304.808H345.449V314.969H355.61V304.808Z" fill="black"/>
<path d="M365.77 304.808H355.61V314.969H365.77V304.808Z" fill="black"/>
<path d="M375.93 304.808H365.77V314.969H375.93V304.808Z" fill="black"/>
<path d="M386.091 304.808H375.93V314.969H386.091V304.808Z" fill="black"/>
<path d="M396.251 304.808H386.091V314.969H396.251V304.808Z" fill="black"/>
<path d="M406.411 304.808H396.251V314.969H406.411V304.808Z" fill="black"/>
<path d="M10.1603 314.969H0V325.129H10.1603V314.969Z" fill="black"/>
<path d="M60.9617 314.969H50.8014V325.129H60.9617V314.969Z" fill="black"/>
<path d="M91.4425 314.969H81.2822V325.129H91.4425V314.969Z" fill="black"/>
<path d="M111.763 314.969H101.603V325.129H111.763V314.969Z" fill="black"/>
<path d="M132.084 314.969H121.923V325.129H132.084V314.969Z" fill="black"/>
<path d="M152.404 314.969H142.244V325.129H152.404V314.969Z" fill="black"/>
<path d="M233.686 314.969H223.526V325.129H233.686V314.969Z" fill="black"/>
<path d="M264.167 314.969H254.007V325.129H264.167V314.969Z" fill="black"/>
<path d="M304.808 314.969H294.648V325.129H304.808V314.969Z" fill="black"/>
<path d="M325.129 314.969H314.969V325.129H325.129V314.969Z" fill="black"/>
<path d="M365.77 314.969H355.61V325.129H365.77V314.969Z" fill="black"/>
<path d="M396.251 314.969H386.091V325.129H396.251V314.969Z" fill="black"/>
<path d="M10.1603 325.129H0V335.289H10.1603V325.129Z" fill="black"/>
<path d="M71.122 325.129H60.9617V335.289H71.122V325.129Z" fill="black"/>
<path d="M91.4425 325.129H81.2822V335.289H91.4425V325.129Z" fill="black"/>
<path d="M101.603 325.129H91.4425V335.289H101.603V325.129Z" fill="black"/>
<path d="M132.084 325.129H121.923V335.289H132.084V325.129Z" fill="black"/>
<path d="M142.244 325.129H132.084V335.289H142.244V325.129Z" fill="black"/>
<path d="M162.564 325.129H152.404V335.289H162.564V325.129Z" fill="black"/>
<path d="M182.885 325.129H172.725V335.289H182.885V325.129Z" fill="black"/>
<path d="M193.045 325.129H182.885V335.289H193.045V325.129Z" fill="black"/>
<path d="M203.206 325.129H193.045V335.289H203.206V325.129Z" fill="black"/>
<path d="M223.526 325.129H213.366V335.289H223.526V325.129Z" fill="black"/>
<path d="M233.686 325.129H223.526V335.289H233.686V325.129Z" fill="black"/>
<path d="M254.007 325.129H243.847V335.289H254.007V325.129Z" fill="black"/>
<path d="M274.328 325.129H264.167V335.289H274.328V325.129Z" fill="black"/>
<path d="M284.488 325.129H274.328V335.289H284.488V325.129Z" fill="black"/>
<path d="M294.648 325.129H284.488V335.289H294.648V325.129Z" fill="black"/>
<path d="M304.808 325.129H294.648V335.289H304.808V325.129Z" fill="black"/>
<path d="M325.129 325.129H314.969V335.289H325.129V325.129Z" fill="black"/>
<path d="M335.289 325.129H325.129V335.289H335.289V325.129Z" fill="black"/>
<path d="M345.449 325.129H335.289V335.289H345.449V325.129Z" fill="black"/>
<path d="M355.61 325.129H345.449V335.289H355.61V325.129Z" fill="black"/>
<path d="M365.77 325.129H355.61V335.289H365.77V325.129Z" fill="black"/>
<path d="M375.93 325.129H365.77V335.289H375.93V325.129Z" fill="black"/>
<path d="M386.091 325.129H375.93V335.289H386.091V325.129Z" fill="black"/>
<path d="M406.411 325.129H396.251V335.289H406.411V325.129Z" fill="black"/>
<path d="M416.571 325.129H406.411V335.289H416.571V325.129Z" fill="black"/>
<path d="M91.4425 335.289H81.2822V345.449H91.4425V335.289Z" fill="black"/>
<path d="M121.923 335.289H111.763V345.449H121.923V335.289Z" fill="black"/>
<path d="M193.045 335.289H182.885V345.449H193.045V335.289Z" fill="black"/>
<path d="M213.366 335.289H203.206V345.449H213.366V335.289Z" fill="black"/>
<path d="M243.847 335.289H233.686V345.449H243.847V335.289Z" fill="black"/>
<path d="M325.129 335.289H314.969V345.449H325.129V335.289Z" fill="black"/>
<path d="M335.289 335.289H325.129V345.449H335.289V335.289Z" fill="black"/>
<path d="M375.93 335.289H365.77V345.449H375.93V335.289Z" fill="black"/>
<path d="M386.091 335.289H375.93V345.449H386.091V335.289Z" fill="black"/>
<path d="M406.411 335.289H396.251V345.449H406.411V335.289Z" fill="black"/>
<path d="M10.1603 345.449H0V355.61H10.1603V345.449Z" fill="black"/>
<path d="M20.3206 345.449H10.1603V355.61H20.3206V345.449Z" fill="black"/>
<path d="M30.4808 345.449H20.3206V355.61H30.4808V345.449Z" fill="black"/>
<path d="M40.6411 345.449H30.4808V355.61H40.6411V345.449Z" fill="black"/>
<path d="M50.8014 345.449H40.6411V355.61H50.8014V345.449Z" fill="black"/>
<path d="M60.9617 345.449H50.8014V355.61H60.9617V345.449Z" fill="black"/>
<path d="M71.122 345.449H60.9617V355.61H71.122V345.449Z" fill="black"/>
<path d="M101.603 345.449H91.4425V355.61H101.603V345.449Z" fill="black"/>
<path d="M121.923 345.449H111.763V355.61H121.923V345.449Z" fill="black"/>
<path d="M132.084 345.449H121.923V355.61H132.084V345.449Z" fill="black"/>
<path d="M152.404 345.449H142.244V355.61H152.404V345.449Z" fill="black"/>
<path d="M162.564 345.449H152.404V355.61H162.564V345.449Z" fill="black"/>
<path d="M182.885 345.449H172.725V355.61H182.885V345.449Z" fill="black"/>
<path d="M193.045 345.449H182.885V355.61H193.045V345.449Z" fill="black"/>
<path d="M203.206 345.449H193.045V355.61H203.206V345.449Z" fill="black"/>
<path d="M213.366 345.449H203.206V355.61H213.366V345.449Z" fill="black"/>
<path d="M223.526 345.449H213.366V355.61H223.526V345.449Z" fill="black"/>
<path d="M233.686 345.449H223.526V355.61H233.686V345.449Z" fill="black"/>
<path d="M254.007 345.449H243.847V355.61H254.007V345.449Z" fill="black"/>
<path d="M274.328 345.449H264.167V355.61H274.328V345.449Z" fill="black"/>
<path d="M304.808 345.449H294.648V355.61H304.808V345.449Z" fill="black"/>
<path d="M335.289 345.449H325.129V355.61H335.289V345.449Z" fill="black"/>
<path d="M355.61 345.449H345.449V355.61H355.61V345.449Z" fill="black"/>
<path d="M375.93 345.449H365.77V355.61H375.93V345.449Z" fill="black"/>
<path d="M386.091 345.449H375.93V355.61H386.091V345.449Z" fill="black"/>
<path d="M416.571 345.449H406.411V355.61H416.571V345.449Z" fill="black"/>
<path d="M10.1603 355.61H0V365.77H10.1603V355.61Z" fill="black"/>
<path d="M71.122 355.61H60.9617V365.77H71.122V355.61Z" fill="black"/>
<path d="M91.4425 355.61H81.2822V365.77H91.4425V355.61Z" fill="black"/>
<path d="M101.603 355.61H91.4425V365.77H101.603V355.61Z" fill="black"/>
<path d="M111.763 355.61H101.603V365.77H111.763V355.61Z" fill="black"/>
<path d="M121.923 355.61H111.763V365.77H121.923V355.61Z" fill="black"/>
<path d="M162.564 355.61H152.404V365.77H162.564V355.61Z" fill="black"/>
<path d="M172.725 355.61H162.564V365.77H172.725V355.61Z" fill="black"/>
<path d="M182.885 355.61H172.725V365.77H182.885V355.61Z" fill="black"/>
<path d="M203.206 355.61H193.045V365.77H203.206V355.61Z" fill="black"/>
<path d="M223.526 355.61H213.366V365.77H223.526V355.61Z" fill="black"/>
<path d="M233.686 355.61H223.526V365.77H233.686V355.61Z" fill="black"/>
<path d="M254.007 355.61H243.847V365.77H254.007V355.61Z" fill="black"/>
<path d="M264.167 355.61H254.007V365.77H264.167V355.61Z" fill="black"/>
<path d="M284.488 355.61H274.328V365.77H284.488V355.61Z" fill="black"/>
<path d="M294.648 355.61H284.488V365.77H294.648V355.61Z" fill="black"/>
<path d="M304.808 355.61H294.648V365.77H304.808V355.61Z" fill="black"/>
<path d="M314.969 355.61H304.808V365.77H314.969V355.61Z" fill="black"/>
<path d="M335.289 355.61H325.129V365.77H335.289V355.61Z" fill="black"/>
<path d="M375.93 355.61H365.77V365.77H375.93V355.61Z" fill="black"/>
<path d="M406.411 355.61H396.251V365.77H406.411V355.61Z" fill="black"/>
<path d="M416.571 355.61H406.411V365.77H416.571V355.61Z" fill="black"/>
<path d="M10.1603 365.77H0V375.93H10.1603V365.77Z" fill="black"/>
<path d="M30.4808 365.77H20.3206V375.93H30.4808V365.77Z" fill="black"/>
<path d="M40.6411 365.77H30.4808V375.93H40.6411V365.77Z" fill="black"/>
<path d="M50.8014 365.77H40.6411V375.93H50.8014V365.77Z" fill="black"/>
<path d="M71.122 365.77H60.9617V375.93H71.122V365.77Z" fill="black"/>
<path d="M193.045 365.77H182.885V375.93H193.045V365.77Z" fill="black"/>
<path d="M325.129 365.77H314.969V375.93H325.129V365.77Z" fill="black"/>
<path d="M335.289 365.77H325.129V375.93H335.289V365.77Z" fill="black"/>
<path d="M345.449 365.77H335.289V375.93H345.449V365.77Z" fill="black"/>
<path d="M355.61 365.77H345.449V375.93H355.61V365.77Z" fill="black"/>
<path d="M365.77 365.77H355.61V375.93H365.77V365.77Z" fill="black"/>
<path d="M375.93 365.77H365.77V375.93H375.93V365.77Z" fill="black"/>
<path d="M386.091 365.77H375.93V375.93H386.091V365.77Z" fill="black"/>
<path d="M396.251 365.77H386.091V375.93H396.251V365.77Z" fill="black"/>
<path d="M416.571 365.77H406.411V375.93H416.571V365.77Z" fill="black"/>
<path d="M10.1603 375.93H0V386.091H10.1603V375.93Z" fill="black"/>
<path d="M30.4808 375.93H20.3206V386.091H30.4808V375.93Z" fill="black"/>
<path d="M40.6411 375.93H30.4808V386.091H40.6411V375.93Z" fill="black"/>
<path d="M50.8014 375.93H40.6411V386.091H50.8014V375.93Z" fill="black"/>
<path d="M71.122 375.93H60.9617V386.091H71.122V375.93Z" fill="black"/>
<path d="M101.603 375.93H91.4425V386.091H101.603V375.93Z" fill="black"/>
<path d="M111.763 375.93H101.603V386.091H111.763V375.93Z" fill="black"/>
<path d="M132.084 375.93H121.923V386.091H132.084V375.93Z" fill="black"/>
<path d="M193.045 375.93H182.885V386.091H193.045V375.93Z" fill="black"/>
<path d="M203.206 375.93H193.045V386.091H203.206V375.93Z" fill="black"/>
<path d="M233.686 375.93H223.526V386.091H233.686V375.93Z" fill="black"/>
<path d="M243.847 375.93H233.686V386.091H243.847V375.93Z" fill="black"/>
<path d="M254.007 375.93H243.847V386.091H254.007V375.93Z" fill="black"/>
<path d="M264.167 375.93H254.007V386.091H264.167V375.93Z" fill="black"/>
<path d="M314.969 375.93H304.808V386.091H314.969V375.93Z" fill="black"/>
<path d="M345.449 375.93H335.289V386.091H345.449V375.93Z" fill="black"/>
<path d="M365.77 375.93H355.61V386.091H365.77V375.93Z" fill="black"/>
<path d="M375.93 375.93H365.77V386.091H375.93V375.93Z" fill="black"/>
<path d="M396.251 375.93H386.091V386.091H396.251V375.93Z" fill="black"/>
<path d="M406.411 375.93H396.251V386.091H406.411V375.93Z" fill="black"/>
<path d="M10.1603 386.091H0V396.251H10.1603V386.091Z" fill="black"/>
<path d="M30.4808 386.091H20.3206V396.251H30.4808V386.091Z" fill="black"/>
<path d="M40.6411 386.091H30.4808V396.251H40.6411V386.091Z" fill="black"/>
<path d="M50.8014 386.091H40.6411V396.251H50.8014V386.091Z" fill="black"/>
<path d="M71.122 386.091H60.9617V396.251H71.122V386.091Z" fill="black"/>
<path d="M101.603 386.091H91.4425V396.251H101.603V386.091Z" fill="black"/>
<path d="M111.763 386.091H101.603V396.251H111.763V386.091Z" fill="black"/>
<path d="M121.923 386.091H111.763V396.251H121.923V386.091Z" fill="black"/>
<path d="M152.404 386.091H142.244V396.251H152.404V386.091Z" fill="black"/>
<path d="M193.045 386.091H182.885V396.251H193.045V386.091Z" fill="black"/>
<path d="M213.366 386.091H203.206V396.251H213.366V386.091Z" fill="black"/>
<path d="M233.686 386.091H223.526V396.251H233.686V386.091Z" fill="black"/>
<path d="M243.847 386.091H233.686V396.251H243.847V386.091Z" fill="black"/>
<path d="M304.808 386.091H294.648V396.251H304.808V386.091Z" fill="black"/>
<path d="M314.969 386.091H304.808V396.251H314.969V386.091Z" fill="black"/>
<path d="M335.289 386.091H325.129V396.251H335.289V386.091Z" fill="black"/>
<path d="M355.61 386.091H345.449V396.251H355.61V386.091Z" fill="black"/>
<path d="M365.77 386.091H355.61V396.251H365.77V386.091Z" fill="black"/>
<path d="M386.091 386.091H375.93V396.251H386.091V386.091Z" fill="black"/>
<path d="M10.1603 396.251H0V406.411H10.1603V396.251Z" fill="black"/>
<path d="M71.122 396.251H60.9617V406.411H71.122V396.251Z" fill="black"/>
<path d="M162.564 396.251H152.404V406.411H162.564V396.251Z" fill="black"/>
<path d="M172.725 396.251H162.564V406.411H172.725V396.251Z" fill="black"/>
<path d="M193.045 396.251H182.885V406.411H193.045V396.251Z" fill="black"/>
<path d="M203.206 396.251H193.045V406.411H203.206V396.251Z" fill="black"/>
<path d="M213.366 396.251H203.206V406.411H213.366V396.251Z" fill="black"/>
<path d="M223.526 396.251H213.366V406.411H223.526V396.251Z" fill="black"/>
<path d="M233.686 396.251H223.526V406.411H233.686V396.251Z" fill="black"/>
<path d="M254.007 396.251H243.847V406.411H254.007V396.251Z" fill="black"/>
<path d="M284.488 396.251H274.328V406.411H284.488V396.251Z" fill="black"/>
<path d="M294.648 396.251H284.488V406.411H294.648V396.251Z" fill="black"/>
<path d="M304.808 396.251H294.648V406.411H304.808V396.251Z" fill="black"/>
<path d="M314.969 396.251H304.808V406.411H314.969V396.251Z" fill="black"/>
<path d="M345.449 396.251H335.289V406.411H345.449V396.251Z" fill="black"/>
<path d="M365.77 396.251H355.61V406.411H365.77V396.251Z" fill="black"/>
<path d="M375.93 396.251H365.77V406.411H375.93V396.251Z" fill="black"/>
<path d="M396.251 396.251H386.091V406.411H396.251V396.251Z" fill="black"/>
<path d="M406.411 396.251H396.251V406.411H406.411V396.251Z" fill="black"/>
<path d="M416.571 396.251H406.411V406.411H416.571V396.251Z" fill="black"/>
<path d="M10.1603 406.411H0V416.571H10.1603V406.411Z" fill="black"/>
<path d="M20.3206 406.411H10.1603V416.571H20.3206V406.411Z" fill="black"/>
<path d="M30.4808 406.411H20.3206V416.571H30.4808V406.411Z" fill="black"/>
<path d="M40.6411 406.411H30.4808V416.571H40.6411V406.411Z" fill="black"/>
<path d="M50.8014 406.411H40.6411V416.571H50.8014V406.411Z" fill="black"/>
<path d="M60.9617 406.411H50.8014V416.571H60.9617V406.411Z" fill="black"/>
<path d="M71.122 406.411H60.9617V416.571H71.122V406.411Z" fill="black"/>
<path d="M101.603 406.411H91.4425V416.571H101.603V406.411Z" fill="black"/>
<path d="M152.404 406.411H142.244V416.571H152.404V406.411Z" fill="black"/>
<path d="M182.885 406.411H172.725V416.571H182.885V406.411Z" fill="black"/>
<path d="M193.045 406.411H182.885V416.571H193.045V406.411Z" fill="black"/>
<path d="M223.526 406.411H213.366V416.571H223.526V406.411Z" fill="black"/>
<path d="M243.847 406.411H233.686V416.571H243.847V406.411Z" fill="black"/>
<path d="M254.007 406.411H243.847V416.571H254.007V406.411Z" fill="black"/>
<path d="M274.328 406.411H264.167V416.571H274.328V406.411Z" fill="black"/>
<path d="M304.808 406.411H294.648V416.571H304.808V406.411Z" fill="black"/>
<path d="M314.969 406.411H304.808V416.571H314.969V406.411Z" fill="black"/>
<path d="M325.129 406.411H314.969V416.571H325.129V406.411Z" fill="black"/>
<path d="M345.449 406.411H335.289V416.571H345.449V406.411Z" fill="black"/>
<path d="M365.77 406.411H355.61V416.571H365.77V406.411Z" fill="black"/>
<path d="M375.93 406.411H365.77V416.571H375.93V406.411Z" fill="black"/>
<path d="M386.091 406.411H375.93V416.571H386.091V406.411Z" fill="black"/>
<path d="M396.251 406.411H386.091V416.571H396.251V406.411Z" fill="black"/>
</svg>
